PathFileType	4	(X/Y/Z)	C:\Users\Biomechanik\SynologyDrive\AlexP\Athlete_03\Athlete_3_25_03_31\Squat_35kg_01\marker_experimental.trc
DataRate	CameraRate	NumFrames	NumMarkers	Units	OrigDataRate	OrigDataStartFrame	OrigNumFrames
200.000000	200.000000	4	55	mm	200.000000	0	646
Frame#	Time	BL			BR			GLAB			RFHD			LFHD			C7			T6			SPINMOL			SPINM2			SPINM3			T12			BELTOL			BELT2			BELT3			SACROL			SACR2			SACR3			LTHOL			LTH2			LTH3			LSHAOL			LSHA2			LSHA3			LHEE			LTOE			LM5			RTHOL			RTH2			RTH3			RSHAOL			RSHA2			RSHA3			RHEE			RTOE			RM5			STRN			XIPH			LACR			LUAOL			LUA2			LUA3			LLAOL			LLA2			LLA3			LWRR			LWRU			RACR			RUAOL			RUA2			RUA3			RLAOL			RLA2			RLA3			RWRR			RWRU			
		X1	Y1	Z1	X2	Y2	Z2	X3	Y3	Z3	X4	Y4	Z4	X5	Y5	Z5	X6	Y6	Z6	X7	Y7	Z7	X8	Y8	Z8	X9	Y9	Z9	X10	Y10	Z10	X11	Y11	Z11	X12	Y12	Z12	X13	Y13	Z13	X14	Y14	Z14	X15	Y15	Z15	X16	Y16	Z16	X17	Y17	Z17	X18	Y18	Z18	X19	Y19	Z19	X20	Y20	Z20	X21	Y21	Z21	X22	Y22	Z22	X23	Y23	Z23	X24	Y24	Z24	X25	Y25	Z25	X26	Y26	Z26	X27	Y27	Z27	X28	Y28	Z28	X29	Y29	Z29	X30	Y30	Z30	X31	Y31	Z31	X32	Y32	Z32	X33	Y33	Z33	X34	Y34	Z34	X35	Y35	Z35	X36	Y36	Z36	X37	Y37	Z37	X38	Y38	Z38	X39	Y39	Z39	X40	Y40	Z40	X41	Y41	Z41	X42	Y42	Z42	X43	Y43	Z43	X44	Y44	Z44	X45	Y45	Z45	X46	Y46	Z46	X47	Y47	Z47	X48	Y48	Z48	X49	Y49	Z49	X50	Y50	Z50	X51	Y51	Z51	X52	Y52	Z52	X53	Y53	Z53	X54	Y54	Z54	X55	Y55	Z55	

1	0	160.3357238769531	1358.260986328125	-2212.244384765625	169.0635070800781	1352.894409179688	-191.848419189453	467.2682189941406	1527.880859375	-1171.886352539062	417.4185791015625	1558.391235351562	-1110.5419921875	428.7985534667969	1554.817626953125	-1245.805419921875	215.2536773681641	1419.364624023438	-1183.019897460938	107.2508316040039	1276.659545898438	-1194.588623046875	89.06681060791016	1242.142822265625	-1213.459838867188	79.48954010009766	1234.481323242188	-1164.78125	72.66806030273438	1179.404296875	-1200.07275390625	64.13727569580078	1107.637451171875	-1200.849365234375	39.63309860229492	1067.947387695312	-1218.448852539062	38.58467102050781	1063.4833984375	-1168.190551757812	26.73873901367188	1005.808654785156	-1199.864013671875	14.21509552001953	929.1131591796876	-1225.793823242188	14.07223224639893	927.0531616210939	-1174.31640625	12.31444072723389	867.0913696289064	-1202.179077148438	104.2568664550781	677.3417968750001	-1424.189331054688	63.88777542114258	613.8941040039064	-1397.76611328125	106.2884292602539	615.7461547851564	-1424.449584960938	95.9083251953125	331.9250488281251	-1510.99169921875	56.56502914428711	262.6641845703126	-1508.55908203125	103.8983764648438	272.1292724609376	-1524.283813476562	72.14302062988281	67.13382720947274	-1492.884155273438	282.8539428710938	50.48665618896494	-1543.859375	217.5954284667969	25.1163387298585	-1632.992309570312	70.45381927490234	685.1557006835939	-987.8514404296875	117.7408752441406	637.5969848632814	-944.4072265625	80.16777801513672	625.4534912109376	-975.1015625	50.0030517578125	346.7879333496094	-894.2012939453125	85.58561706542969	284.8717346191407	-861.3319702148438	44.25192260742188	284.7911376953126	-889.28125	52.49828720092773	61.38725662231451	-914.3338012695312	251.0349426269531	48.04462051391607	-835.9702758789062	169.6299591064453	36.09402847290044	-756.057373046875	346.4328918457031	1277.93212890625	-1186.128295898438	333.2662963867188	1135.02001953125	-1185.059326171875	243.1707611083984	1387.088134765625	-1342.696899414062	120.2640151977539	1288.7548828125	-1429.561767578125	69.80729675292969	1248.280029296875	-1417.596435546875	97.04663848876953	1235.478393554688	-1458.875732421875	55.0069465637207	1176.305541992188	-1528.769165039062	119.7050247192383	1164.19873046875	-1573.209350585938	99.09346008300781	1207.993774414062	-1557.9921875	159.2389221191406	1281.638916015625	-1601.16162109375	186.6203460693359	1300.591552734375	-1528.65966796875	248.7132873535156	1382.928344726562	-1032.252807617188	127.6443481445312	1287.212524414062	-956.8957519531249	94.03455352783203	1237.447998046875	-927.9294433593749	76.03773498535156	1250.56005859375	-975.3752441406249	65.42144012451172	1165.1162109375	-841.2706298828124	82.88999176025391	1241.060302734375	-823.1115112304686	107.3176498413086	1199.494506835938	-809.8601074218749	153.8308868408203	1274.416381835938	-778.0849609374999	194.6190185546875	1301.623657226562	-842.5142211914061	
2	0.005	160.3471984863281	1358.258056640625	-2212.24560546875	169.0576782226562	1352.915283203125	-191.8501892089843	467.2712707519531	1527.895263671875	-1171.905029296875	417.4230346679688	1558.405029296875	-1110.566040039062	428.7917175292969	1554.8203125	-1245.81591796875	215.2340545654297	1419.37646484375	-1183.024658203125	107.2423553466797	1276.649658203125	-1194.584106445312	89.06130981445312	1242.133422851562	-1213.459350585938	79.49785614013672	1234.47900390625	-1164.780517578125	72.66499328613281	1179.395629882812	-1200.072509765625	64.13776397705078	1107.639282226562	-1200.841430664062	39.6355094909668	1067.955810546875	-1218.437866210938	38.59055328369141	1063.482666015625	-1168.192138671875	26.73368644714355	1005.822326660156	-1199.86279296875	14.20390796661377	929.1061401367189	-1225.784912109375	14.05995845794678	927.0507202148439	-1174.304931640625	12.31317138671875	867.0848388671876	-1202.169677734375	104.2689743041992	677.3493041992189	-1424.177124023438	63.87921905517578	613.8843994140626	-1397.753173828125	106.2683639526367	615.7615966796876	-1424.457763671875	95.90228271484375	331.9265136718751	-1510.993896484375	56.56878662109375	262.6621704101564	-1508.553100585938	103.8998260498047	272.1257324218751	-1524.280395507812	72.14113616943359	67.13023376464852	-1492.88525390625	282.8507995605469	50.48394775390634	-1543.858520507812	217.593994140625	25.11717414855967	-1632.987670898438	70.456787109375	685.1540527343751	-987.842529296875	117.746826171875	637.5946044921876	-944.404052734375	80.17540740966797	625.4539794921876	-975.0952758789062	50.00267028808594	346.7883605957032	-894.1993408203125	85.58437347412109	284.8676452636719	-861.332275390625	44.25270843505859	284.7911376953126	-889.2787475585938	52.49857711791992	61.38011932373053	-914.3309936523438	251.0355224609375	48.0459594726563	-835.9611206054688	169.6293182373047	36.09329605102544	-756.0567016601562	346.4477233886719	1277.972412109375	-1186.122314453125	333.3065795898438	1135.0556640625	-1185.056030273438	243.1708221435547	1387.109375	-1342.693481445312	120.2802810668945	1288.771118164062	-1429.564208984375	69.8271484375	1248.289184570312	-1417.606079101562	97.09567260742188	1235.469360351562	-1458.87060546875	55.05914688110352	1176.300415039062	-1528.770629882812	119.7510299682617	1164.206298828125	-1573.216674804688	99.12727355957031	1207.998046875	-1558.005981445312	159.2626953125	1281.6533203125	-1601.166625976562	186.7006530761719	1300.6015625	-1528.681640625	248.7124786376953	1382.977416992188	-1032.2373046875	127.654541015625	1287.23291015625	-956.8853149414061	94.0545654296875	1237.4619140625	-927.9234619140624	76.05093383789062	1250.5712890625	-975.3637695312499	65.44918823242188	1165.128295898438	-841.2587890624999	82.78179931640625	1241.07470703125	-823.1353149414061	107.3420715332031	1199.51123046875	-809.8518066406249	153.8423919677734	1274.443359375	-778.0809326171874	194.6330871582031	1301.650146484375	-842.5045776367186	
3	0.01	160.3607635498047	1358.255981445313	-2212.247314453125	169.0512390136719	1352.93994140625	-191.8526153564452	467.2733154296875	1527.912719726562	-1171.9267578125	417.4268493652344	1558.421630859375	-1110.594482421875	428.7839050292969	1554.8251953125	-1245.830322265625	215.2114410400391	1419.390625	-1183.029907226562	107.2324371337891	1276.638305664062	-1194.578857421875	89.05481719970703	1242.122436523438	-1213.458740234375	79.50826263427734	1234.476684570312	-1164.778564453125	72.66163635253906	1179.385375976562	-1200.072021484375	64.13845825195312	1107.641357421875	-1200.832153320312	39.63863372802734	1067.965576171875	-1218.425048828125	38.5977668762207	1063.482421875	-1168.193115234375	26.73334884643555	1005.834777832031	-1199.8583984375	14.19099998474121	929.0979614257814	-1225.7744140625	14.04638195037842	927.0476074218751	-1174.291259765625	12.31192684173584	867.0773925781251	-1202.15869140625	104.2816314697266	677.3589477539064	-1424.16357421875	63.86849212646484	613.8750000000001	-1397.743530273438	106.2512893676758	615.7722167968751	-1424.463989257812	95.89519500732422	331.9281616210939	-1510.99609375	56.572998046875	262.6598205566407	-1508.546142578125	103.9014053344727	272.1213684082032	-1524.2763671875	72.13892364501953	67.12592315673837	-1492.886474609375	282.8470458984375	50.48083877563486	-1543.857421875	217.5921783447266	25.11852073669444	-1632.98193359375	70.46036529541016	685.1525268554689	-987.8323974609375	117.753532409668	637.5918579101564	-944.40087890625	80.18448638916016	625.4549560546876	-975.0883178710938	50.00225067138672	346.7888488769532	-894.1968994140625	85.58293151855469	284.8629150390626	-861.3325805664062	44.25371551513672	284.7911071777344	-889.27587890625	52.49885559082031	61.37195205688482	-914.3277587890625	251.0363159179688	48.04752349853521	-835.9501342773438	169.6288146972656	36.09228134155278	-756.0560913085938	346.4646911621094	1278.01904296875	-1186.115844726562	333.3533325195312	1135.097290039062	-1185.052734375	243.1704864501953	1387.134155273438	-1342.68994140625	120.2982635498047	1288.790649414062	-1429.56689453125	69.84951019287109	1248.300659179688	-1417.616821289062	97.14614868164062	1235.464233398438	-1458.868286132812	55.11550903320312	1176.2958984375	-1528.773681640625	119.8024215698242	1164.215942382812	-1573.225341796875	99.16477966308594	1208.00390625	-1558.021484375	159.2893371582031	1281.670532226562	-1601.172729492188	186.7813720703125	1300.615112304688	-1528.703735351562	248.7107086181641	1383.0302734375	-1032.222534179688	127.6660079956055	1287.256591796875	-956.8733520507811	94.07698059082031	1237.478759765625	-927.9165039062499	76.06552124023438	1250.5849609375	-975.3507690429686	65.48008728027344	1165.142944335938	-841.2455444335936	82.67727661132812	1241.091674804688	-823.1573486328124	107.3693161010742	1199.531005859375	-809.8425292968749	153.8551940917969	1274.474853515625	-778.0764770507811	194.6489715576172	1301.680908203125	-842.4936523437499	
4	0.015	160.3764190673828	1358.255004882813	-2212.25	169.0443572998047	1352.968383789062	-191.8557891845702	467.2739562988281	1527.93359375	-1171.951416015625	417.4295959472656	1558.441040039062	-1110.62744140625	428.7752380371094	1554.832641601562	-1245.849365234375	215.1859741210938	1419.407104492188	-1183.035400390625	107.2211303710938	1276.625366210938	-1194.572875976562	89.04734039306641	1242.10986328125	-1213.457885742188	79.52086639404297	1234.474365234375	-1164.775390625	72.65807342529297	1179.37353515625	-1200.071533203125	64.13938903808594	1107.643798828125	-1200.821655273438	39.64257431030273	1067.9765625	-1218.410278320312	38.60628890991211	1063.482788085938	-1168.193115234375	26.73875045776367	1005.845336914063	-1199.850463867188	14.17649078369141	929.0887451171876	-1225.762451171875	14.03172206878662	927.0439453125001	-1174.275390625	12.31078338623047	867.0690307617189	-1202.14599609375	104.2944259643555	677.3706665039064	-1424.149047851562	63.85541534423828	613.8665161132814	-1397.738647460938	106.2377853393555	615.7773437500001	-1424.4677734375	95.88705444335938	331.929901123047	-1510.998291015625	56.57754898071289	262.6571044921876	-1508.537963867188	103.903076171875	272.1160888671876	-1524.271362304688	72.13638305664062	67.1209030151368	-1492.888061523438	282.8427734375	50.4773826599122	-1543.85595703125	217.5899658203125	25.12047958374033	-1632.975341796875	70.46452331542969	685.1512451171876	-987.8211669921875	117.7608261108398	637.5887451171876	-944.3978271484375	80.19498443603516	625.4562988281251	-975.0806884765625	50.00182723999023	346.7893676757813	-894.1939697265625	85.58135986328125	284.8576354980469	-861.332763671875	44.25500106811523	284.7909545898438	-889.2728271484375	52.49911499023438	61.36285400390631	-914.3240356445312	251.037353515625	48.04932022094732	-835.9371948242188	169.6284637451172	36.09096527099614	-756.055419921875	346.4836120605469	1278.071655273438	-1186.10888671875	333.40625	1135.144653320312	-1185.049438476562	243.1696472167969	1387.162353515625	-1342.6865234375	120.3176422119141	1288.813720703125	-1429.56982421875	69.87406158447266	1248.314697265625	-1417.628662109375	97.19599151611328	1235.464721679688	-1458.869873046875	55.17490768432617	1176.29248046875	-1528.77880859375	119.8584060668945	1164.227905273438	-1573.235107421875	99.20529174804688	1208.011840820312	-1558.038696289062	159.3184204101562	1281.6904296875	-1601.179809570312	186.8597412109375	1300.632446289062	-1528.725463867188	248.7077178955078	1383.085571289062	-1032.209350585938	127.6785507202148	1287.283203125	-956.8600463867186	94.10147857666016	1237.49853515625	-927.9087524414061	76.08119964599609	1250.601318359375	-975.3364868164061	65.51358795166016	1165.160034179688	-841.2312011718749	82.58017730712891	1241.111328125	-823.1767578124999	107.3988952636719	1199.5537109375	-809.8324584960936	153.8690490722656	1274.5107421875	-778.0715332031249	194.6664276123047	1301.715454101562	-842.4815673828124	
